<?xml version="1.0" encoding="utf-8"?>
<!-- Generator: Adobe Illustrator 19.1.0, SVG Export Plug-In . SVG Version: 6.00 Build 0)  -->
<svg version="1.1" id="Layer_1" xmlns="http://www.w3.org/2000/svg" xmlns:xlink="http://www.w3.org/1999/xlink" x="0px" y="0px"
	 viewBox="0 0 682.3 129.3" style="enable-background:new 0 0 682.3 129.3;" xml:space="preserve">
<style type="text/css">
	.dotarrows{fill:white;}
	.sustainable{fill:lightblue;}
	.outerstripe{fill:lightblue;}
	.middlestripe{fill:#004C84;}
	.innerstripe{fill:gold;}
	.taskforce{fill:#FFFFFF;}
</style>
<g>
	<circle class="dotarrows" cx="56.2" cy="67" r="8.3"/>
	<path class="outerstripe" d="M55.6,27.1c0,0-15.9-15.4-25.8,1.1c-9.2,15.3,3.4,45.4,3.4,45.4c-8.8-12.7-15-34.7-5.9-49.2
		C34.3,13.1,48.9,15.6,55.6,27.1z"/>
	<path class="middlestripe" d="M46.5,23.1c0,0-9.4-3.2-13.6,9.3C26,53.1,39.7,82,39.7,82c-9.1-9.8-14.7-36.9-9.7-50.7
		C33.2,22.2,40.7,20,46.5,23.1z"/>
	<path class="dotarrows" d="M42.9,24.8c0,0-6.4,3.2-7.9,13.8c-1.7,12.8-0.1,23.9-0.1,23.9C31.8,52.1,29.3,27.8,42.9,24.8z"/>
	<polygon class="dotarrows" points="58.2,24.4 56.6,28.2 52.6,30.2 62.3,35.4 	"/>
	<path class="outerstripe" d="M56.8,106.8c0,0,15.9,15.4,25.8-1.1c9.2-15.3-3.4-45.4-3.4-45.4c8.8,12.7,15,34.7,5.9,49.2
		C78.1,120.8,63.5,118.3,56.8,106.8z"/>
	<path class="middlestripe" d="M65.8,110.8c0,0,9.4,3.2,13.6-9.3c6.9-20.6-6.7-49.6-6.7-49.6c9.1,9.8,14.7,36.9,9.7,50.7
		C79.2,111.7,71.6,113.9,65.8,110.8z"/>
	<path class="dotarrows" d="M69.4,109.1c0,0,6.4-3.2,7.9-13.8c1.7-12.8,0.1-23.9,0.1-23.9C80.6,81.8,83,106.1,69.4,109.1z"/>
	<polygon class="dotarrows" points="54.2,109.6 55.8,105.7 59.8,103.7 50,98.5 	"/>
	<path class="outerstripe" d="M16.4,67.5c0,0-15.4,15.9,1.1,25.8c15.3,9.2,45.4-3.4,45.4-3.4c-12.7,8.8-34.7,15-49.2,5.9
		C2.3,88.9,4.8,74.3,16.4,67.5z"/>
	<path class="middlestripe" d="M12.4,76.6c0,0-3.2,9.4,9.3,13.6c20.6,6.9,49.6-6.7,49.6-6.7c-9.8,9.1-36.9,14.7-50.7,9.7
		C11.5,90,9.2,82.4,12.4,76.6z"/>
	<path class="dotarrows" d="M14,80.2c0,0,3.2,6.4,13.8,7.9c12.8,1.7,23.9,0.1,23.9,0.1C41.3,91.3,17.1,93.8,14,80.2z"/>
	<polygon class="dotarrows" points="13.6,65 17.4,66.5 19.4,70.5 24.7,60.8 	"/>
	<path class="outerstripe" d="M96,66.4c0,0,15.4-15.9-1.1-25.8C79.6,31.3,49.6,44,49.6,44c12.7-8.8,34.7-15,49.2-5.9
		C110,45,107.6,59.6,96,66.4z"/>
	<path class="middlestripe" d="M100,57.3c0,0,3.2-9.4-9.3-13.6c-20.6-6.9-49.6,6.7-49.6,6.7c9.8-9.1,36.9-14.7,50.7-9.7
		C100.9,43.9,103.1,51.5,100,57.3z"/>
	<path class="dotarrows" d="M98.3,53.7c0,0-3.2-6.4-13.8-7.9c-12.8-1.7-23.9-0.1-23.9-0.1C71,42.6,95.3,40.1,98.3,53.7z"/>
	<polygon class="dotarrows" points="98.8,69 94.9,67.4 92.9,63.4 87.7,73.1 	"/>
</g>
<g>
	<g>
		<path class="sustainable" d="M135.1,51.3h3.6l1,6.4c0.3,0.3,0.6,0.6,1.1,0.8c0.5,0.3,1,0.5,1.6,0.7c0.6,0.2,1.3,0.4,2,0.5
			c0.7,0.1,1.5,0.2,2.3,0.2c2.6,0,4.5-0.6,5.8-1.7c1.3-1.1,1.9-2.6,1.9-4.6c0-1-0.2-1.9-0.6-2.6c-0.4-0.8-1-1.5-1.8-2.1
			c-0.8-0.6-1.7-1.2-2.8-1.8c-1.1-0.5-2.3-1.1-3.7-1.7c-1.1-0.5-2.2-1-3.4-1.7c-1.2-0.6-2.3-1.4-3.4-2.4s-1.9-2-2.6-3.3
			c-0.7-1.3-1-2.7-1-4.4c0-1.4,0.3-2.7,0.9-3.9c0.6-1.2,1.4-2.2,2.5-3.1c1.1-0.9,2.4-1.6,4-2s3.3-0.7,5.3-0.7c1.2,0,2.4,0.1,3.5,0.3
			c1.1,0.2,2.1,0.4,2.9,0.6c0.9,0.2,1.6,0.4,2.3,0.6c0.7,0.2,1.2,0.3,1.6,0.4l-0.3,8.6h-3.4l-1.2-6c-0.2-0.2-0.4-0.3-0.7-0.5
			c-0.3-0.2-0.8-0.3-1.2-0.4s-1-0.2-1.6-0.3c-0.6-0.1-1.2-0.1-1.8-0.1c-2.4,0-4.1,0.5-5.2,1.4s-1.7,2.3-1.7,4.1c0,1,0.2,1.9,0.6,2.6
			c0.4,0.7,1,1.4,1.8,2c0.8,0.6,1.7,1.2,2.8,1.8c1.1,0.6,2.3,1.2,3.7,1.8c1.2,0.6,2.5,1.2,3.8,1.9c1.3,0.7,2.4,1.5,3.5,2.3
			c1,0.9,1.9,1.9,2.5,3.1c0.7,1.1,1,2.5,1,4c0,1.3-0.3,2.6-0.9,3.9c-0.6,1.3-1.4,2.5-2.6,3.5s-2.6,1.9-4.4,2.6c-1.8,0.7-3.8,1-6.2,1
			c-1.5,0-2.9-0.1-4.2-0.3c-1.3-0.2-2.4-0.5-3.5-0.8c-1-0.3-1.9-0.6-2.6-0.8c-0.7-0.3-1.3-0.4-1.7-0.4L135.1,51.3z"/>
		<path class="sustainable" d="M165.7,36.7l-2.8-0.9v-2.5l7.6-0.8h0l1.1,0.7v18.1c0,1.4,0.1,2.6,0.2,3.6c0.1,1,0.4,1.8,0.8,2.4
			c0.4,0.6,0.9,1.1,1.6,1.3c0.7,0.3,1.5,0.4,2.6,0.4c0.8,0,1.5-0.1,2.1-0.3c0.7-0.2,1.3-0.4,1.9-0.6c0.6-0.3,1.1-0.5,1.5-0.8
			c0.5-0.3,0.8-0.6,1.2-0.8V36.8l-3.7-1v-2.5l8.1-0.7h0.1l1.4,0.7v26.2h3.1V62c-0.6,0.2-1.3,0.4-2.2,0.6c-0.9,0.2-1.8,0.3-2.9,0.3
			c-1.1,0-1.9-0.2-2.4-0.6c-0.5-0.4-0.8-1.1-0.8-2.1v-1.3c-0.5,0.5-1,0.9-1.7,1.4c-0.7,0.5-1.4,0.9-2.2,1.3c-0.8,0.4-1.7,0.7-2.6,1
			c-0.9,0.3-1.8,0.4-2.7,0.4c-1.6,0-3-0.2-4.1-0.6s-2.1-1.1-2.8-2c-0.7-0.9-1.3-2.1-1.6-3.5c-0.4-1.4-0.5-3.2-0.5-5.2V36.7z"/>
		<path class="sustainable" d="M195.2,54.3h3.6l1,3.7c0.2,0.2,0.4,0.5,0.8,0.7c0.4,0.2,0.8,0.5,1.3,0.7c0.5,0.2,1.1,0.3,1.7,0.5
			s1.3,0.2,1.9,0.2c1,0,1.9-0.1,2.6-0.3s1.2-0.5,1.7-0.8c0.4-0.4,0.7-0.8,0.9-1.2c0.2-0.5,0.3-1,0.3-1.5c0-0.7-0.2-1.2-0.5-1.8
			c-0.3-0.5-0.8-1-1.5-1.5c-0.6-0.5-1.5-0.9-2.4-1.4c-1-0.4-2.1-0.9-3.4-1.4c-1.3-0.5-2.5-1-3.4-1.6c-1-0.6-1.8-1.2-2.4-1.9
			c-0.6-0.7-1.1-1.5-1.4-2.4c-0.3-0.9-0.5-1.9-0.5-3c0-1.1,0.3-2.1,0.8-3.1s1.3-1.7,2.2-2.3s2.1-1.2,3.4-1.5
			c1.3-0.4,2.7-0.5,4.3-0.5c1.1,0,2.1,0.1,3,0.2s1.7,0.3,2.5,0.5c0.7,0.2,1.3,0.4,1.9,0.5c0.5,0.2,1,0.3,1.3,0.4v6.2h-3.3l-1.1-3.4
			c-0.1-0.2-0.3-0.4-0.6-0.6c-0.3-0.2-0.6-0.4-1-0.5c-0.4-0.1-0.9-0.3-1.4-0.4c-0.5-0.1-1-0.1-1.6-0.1c-0.8,0-1.6,0.1-2.2,0.3
			s-1.2,0.4-1.6,0.7c-0.4,0.3-0.7,0.7-1,1.1c-0.2,0.4-0.3,0.9-0.3,1.4c0,0.8,0.2,1.5,0.6,2c0.4,0.5,0.9,1,1.5,1.4
			c0.6,0.4,1.4,0.8,2.2,1.1c0.8,0.3,1.7,0.7,2.5,1c1.1,0.5,2.3,1,3.3,1.5c1.1,0.5,2,1.1,2.9,1.8c0.8,0.7,1.5,1.5,2,2.4
			s0.8,2,0.8,3.3c0,1.2-0.3,2.3-0.8,3.4c-0.5,1-1.3,1.9-2.2,2.6c-1,0.7-2.1,1.3-3.5,1.7c-1.4,0.4-3,0.6-4.8,0.6c-1,0-2-0.1-3-0.2
			c-1-0.2-2-0.3-2.9-0.6c-0.9-0.2-1.7-0.5-2.5-0.7c-0.7-0.2-1.3-0.5-1.8-0.7V54.3z"/>
		<path class="sustainable" d="M222.1,37.4h-3.7V35c0.2-0.1,0.5-0.1,0.8-0.2c0.3-0.1,0.6-0.2,0.8-0.3s0.5-0.2,0.8-0.3s0.4-0.2,0.5-0.3
			c0.3-0.2,0.5-0.5,0.8-0.8c0.2-0.3,0.4-0.8,0.6-1.3c0.1-0.3,0.3-0.8,0.5-1.3s0.4-1.1,0.6-1.7c0.2-0.6,0.3-1.2,0.5-1.7
			s0.3-1,0.3-1.3h3.3l0.1,8h8.6v3.7H228v15.2c0,1.4,0,2.6,0.1,3.4c0.1,0.8,0.2,1.4,0.4,1.8c0.2,0.4,0.5,0.7,0.9,0.8
			c0.4,0.1,0.9,0.2,1.6,0.2h0c0.5,0,1,0,1.6-0.1s1.1-0.1,1.6-0.2c0.5-0.1,1-0.2,1.4-0.3c0.4-0.1,0.8-0.2,1-0.3h0l0.9,2.5
			c-0.4,0.3-0.9,0.6-1.6,1c-0.7,0.3-1.4,0.6-2.3,0.9c-0.8,0.3-1.7,0.5-2.5,0.6s-1.7,0.3-2.5,0.3h-0.1c-1,0-1.9-0.1-2.7-0.3
			s-1.5-0.5-2-1c-0.5-0.5-1-1.1-1.3-1.8s-0.4-1.7-0.4-2.8V37.4z"/>
		<path class="sustainable" d="M238.2,54.6c0-1.8,0.5-3.3,1.4-4.6c1-1.2,2.2-2.3,3.8-3.1c1.6-0.8,3.4-1.4,5.5-1.7c2.1-0.4,4.2-0.6,6.4-0.6
			v-1.1c0-1-0.1-1.8-0.3-2.5c-0.2-0.7-0.5-1.3-0.9-1.7c-0.4-0.4-1-0.8-1.8-1c-0.7-0.2-1.7-0.3-2.8-0.3c-1,0-1.9,0.1-2.8,0.2
			s-1.7,0.3-2.5,0.5s-1.5,0.4-2.2,0.7c-0.6,0.2-1.2,0.5-1.7,0.7h0l-1.3-2.4c0.3-0.3,0.8-0.6,1.7-1.1s1.8-0.9,2.9-1.3
			c1.1-0.4,2.3-0.8,3.6-1.1c1.3-0.3,2.5-0.5,3.8-0.5c1.8,0,3.4,0.2,4.7,0.5c1.3,0.4,2.3,0.9,3.1,1.7s1.3,1.8,1.7,3.1
			c0.3,1.3,0.5,2.8,0.5,4.5v15.9h3.1V62c-0.3,0.1-0.7,0.2-1.2,0.3c-0.5,0.1-0.9,0.2-1.4,0.3c-0.5,0.1-1,0.2-1.6,0.2
			c-0.5,0.1-1,0.1-1.5,0.1c-0.5,0-0.9,0-1.3-0.1s-0.6-0.2-0.8-0.3c-0.2-0.2-0.4-0.4-0.5-0.8c-0.1-0.4-0.2-0.8-0.2-1.4v-1.2
			c-0.3,0.3-0.7,0.6-1.2,1.1c-0.5,0.4-1.2,0.9-1.9,1.3c-0.7,0.4-1.6,0.8-2.5,1.1c-0.9,0.3-1.9,0.4-3,0.4c-1.2,0-2.3-0.2-3.4-0.5
			c-1.1-0.3-2-0.8-2.8-1.5c-0.8-0.7-1.5-1.5-1.9-2.6C238.4,57.3,238.2,56,238.2,54.6z M244.6,53.9c0,0.9,0.1,1.7,0.4,2.4
			c0.2,0.7,0.6,1.2,1,1.6c0.4,0.4,1,0.7,1.6,0.9c0.6,0.2,1.3,0.3,2,0.3c0.4,0,0.8-0.1,1.3-0.2c0.5-0.1,1-0.3,1.6-0.5
			c0.5-0.2,1.1-0.5,1.6-0.7s1-0.6,1.4-0.9v-9.2c-2,0-3.7,0.2-5,0.5c-1.4,0.4-2.5,0.8-3.3,1.4c-0.9,0.6-1.5,1.2-1.9,2
			C244.8,52.2,244.6,53,244.6,53.9z"/>
		<path class="sustainable" d="M265.3,60.1l4.2-0.4V38.2l-3.7-1.1v-3l8.1-1.1h0.1l1.3,1v25.6l4.1,0.4v2.8h-14.1V60.1z M270.2,27.6
			c-0.4-0.2-0.8-0.4-1.1-0.7c-0.3-0.3-0.5-0.7-0.7-1.1c-0.2-0.4-0.2-0.9-0.2-1.4c0-0.5,0.1-1.1,0.2-1.6c0.2-0.5,0.4-0.9,0.7-1.3
			c0.3-0.4,0.7-0.7,1.2-0.9c0.5-0.2,1-0.3,1.7-0.3h0c0.6,0,1.1,0.1,1.5,0.3c0.4,0.2,0.8,0.5,1.1,0.8s0.5,0.7,0.7,1.1
			c0.2,0.4,0.2,0.9,0.2,1.3c0,0.6-0.1,1.1-0.2,1.6c-0.2,0.5-0.4,0.9-0.7,1.3c-0.3,0.4-0.8,0.7-1.3,0.9c-0.5,0.2-1.1,0.3-1.8,0.3h0
			C271.1,27.9,270.7,27.8,270.2,27.6z"/>
		<path class="sustainable" d="M281.4,60.2l3.4-0.4V39l-3.7-1v-3.2l7.6-1h0.1l1.2,1v2.2l0,1.2c0.6-0.5,1.3-1.1,2.1-1.6s1.7-1,2.7-1.4
			c0.9-0.4,1.9-0.8,2.9-1c1-0.3,2-0.4,3-0.4c1.7,0,3.1,0.2,4.1,0.7c1.1,0.5,1.9,1.2,2.6,2.1c0.6,1,1.1,2.2,1.3,3.7s0.4,3.3,0.4,5.4
			v14.2l3.7,0.4v2.7h-12.9v-2.7l3.3-0.4V45.6c0-1.4-0.1-2.5-0.2-3.5c-0.1-1-0.4-1.8-0.7-2.5c-0.4-0.7-0.9-1.1-1.6-1.5
			c-0.7-0.3-1.6-0.5-2.7-0.5c-0.6,0-1.3,0.1-2,0.2s-1.3,0.4-2,0.6c-0.6,0.3-1.3,0.6-1.8,0.9c-0.6,0.3-1.1,0.7-1.6,1v19.3l3.5,0.4
			v2.7h-12.8V60.2z"/>
		<path class="sustainable" d="M314.1,54.6c0-1.8,0.5-3.3,1.4-4.6c1-1.2,2.2-2.3,3.8-3.1c1.6-0.8,3.4-1.4,5.5-1.7c2.1-0.4,4.2-0.6,6.4-0.6
			v-1.1c0-1-0.1-1.8-0.3-2.5c-0.2-0.7-0.5-1.3-0.9-1.7c-0.4-0.4-1-0.8-1.8-1c-0.7-0.2-1.7-0.3-2.8-0.3c-1,0-1.9,0.1-2.8,0.2
			s-1.7,0.3-2.5,0.5s-1.5,0.4-2.2,0.7c-0.6,0.2-1.2,0.5-1.7,0.7h0l-1.3-2.4c0.3-0.3,0.8-0.6,1.7-1.1s1.8-0.9,2.9-1.3
			c1.1-0.4,2.3-0.8,3.6-1.1c1.3-0.3,2.5-0.5,3.8-0.5c1.8,0,3.4,0.2,4.7,0.5s2.3,0.9,3.1,1.7s1.3,1.8,1.7,3.1
			c0.3,1.3,0.5,2.8,0.5,4.5v15.9h3.1V62c-0.3,0.1-0.7,0.2-1.2,0.3c-0.5,0.1-0.9,0.2-1.4,0.3c-0.5,0.1-1,0.2-1.6,0.2
			c-0.5,0.1-1,0.1-1.5,0.1c-0.5,0-0.9,0-1.3-0.1s-0.6-0.2-0.8-0.3c-0.2-0.2-0.4-0.4-0.5-0.8s-0.2-0.8-0.2-1.4v-1.2
			c-0.3,0.3-0.7,0.6-1.2,1.1c-0.5,0.4-1.2,0.9-1.9,1.3c-0.7,0.4-1.6,0.8-2.5,1.1c-0.9,0.3-1.9,0.4-3,0.4c-1.2,0-2.3-0.2-3.4-0.5
			c-1.1-0.3-2-0.8-2.8-1.5c-0.8-0.7-1.5-1.5-1.9-2.6C314.3,57.3,314.1,56,314.1,54.6z M320.5,53.9c0,0.9,0.1,1.7,0.4,2.4
			c0.2,0.7,0.6,1.2,1,1.6c0.4,0.4,1,0.7,1.6,0.9c0.6,0.2,1.3,0.3,2,0.3c0.4,0,0.8-0.1,1.3-0.2c0.5-0.1,1-0.3,1.6-0.5
			c0.5-0.2,1.1-0.5,1.6-0.7s1-0.6,1.4-0.9v-9.2c-2,0-3.7,0.2-5,0.5c-1.4,0.4-2.5,0.8-3.3,1.4c-0.9,0.6-1.5,1.2-1.9,2
			C320.7,52.2,320.5,53,320.5,53.9z"/>
		<path class="sustainable" d="M343.3,24.7l-4.2-0.5v-2.4l8.6-1.1h0.1l1.3,0.9v15.7c0.4-0.4,0.9-0.8,1.5-1.3c0.6-0.4,1.2-0.8,1.9-1.1
			c0.7-0.3,1.4-0.6,2.3-0.8c0.8-0.2,1.7-0.3,2.6-0.3c1.5,0,2.9,0.3,4.3,0.8c1.4,0.5,2.6,1.3,3.7,2.4c1.1,1.1,1.9,2.5,2.5,4.3
			c0.6,1.7,0.9,3.8,0.9,6.2c0,2.2-0.4,4.2-1.1,6.1c-0.7,1.9-1.7,3.5-3,4.9c-1.3,1.4-2.9,2.5-4.8,3.3s-4,1.2-6.3,1.2
			c-1.3,0-2.6-0.1-3.8-0.2c-1.2-0.1-2.2-0.3-3.2-0.5c-0.9-0.2-1.7-0.4-2.3-0.7c-0.6-0.2-1-0.4-1.2-0.6V24.7z M349.2,58.4
			c0.1,0.3,0.3,0.5,0.6,0.7c0.3,0.2,0.7,0.4,1.1,0.5s0.9,0.2,1.5,0.3c0.5,0.1,1.1,0.1,1.7,0.1c1.2,0,2.3-0.2,3.4-0.7
			s1.9-1.2,2.7-2.2c0.8-1,1.3-2.2,1.8-3.7c0.4-1.5,0.7-3.2,0.7-5.1c0-1.8-0.2-3.4-0.5-4.8c-0.4-1.3-0.9-2.4-1.6-3.3
			c-0.7-0.9-1.5-1.5-2.4-1.9c-0.9-0.4-1.9-0.6-3-0.6c-0.7,0-1.3,0.1-1.9,0.3c-0.6,0.2-1.2,0.4-1.7,0.7c-0.5,0.3-1,0.6-1.3,0.9
			c-0.4,0.3-0.7,0.6-1,0.9V58.4z"/>
		<path class="sustainable" d="M370.8,60.1l4.2-0.4V23.9l-4.2-0.5V21l8.7-1.1h0.1l1.3,0.9v38.9l4.4,0.4v2.8h-14.3V60.1z"/>
		<path class="sustainable" d="M386.6,48.4c0-2.2,0.3-4.2,1-6c0.7-1.8,1.6-3.3,2.9-4.6c1.2-1.3,2.7-2.3,4.4-3c1.7-0.7,3.5-1.1,5.5-1.1
			c3.3,0,5.8,0.8,7.6,2.4c1.8,1.6,2.8,4,2.9,7.1c0,1,0,1.9,0,2.6s-0.1,1.4-0.3,2h-17.8c0.1,1.9,0.3,3.6,0.8,5
			c0.5,1.4,1.1,2.5,1.9,3.4c0.8,0.9,1.7,1.6,2.7,2c1,0.4,2.1,0.6,3.3,0.6c0.7,0,1.5-0.1,2.2-0.2c0.8-0.1,1.5-0.3,2.2-0.6
			s1.3-0.5,1.9-0.8c0.6-0.3,1.1-0.6,1.5-0.9l1.1,2.5c-0.5,0.5-1.1,1-1.9,1.4s-1.6,0.9-2.5,1.2c-0.9,0.4-1.9,0.6-3,0.9
			c-1.1,0.2-2.1,0.3-3.2,0.3c-2.2,0-4.1-0.4-5.8-1.1c-1.6-0.7-3-1.7-4.1-3s-1.9-2.8-2.4-4.6S386.6,50.5,386.6,48.4z M404.7,44.9
			c0-0.3,0.1-0.6,0.1-1c0-0.3,0-0.7,0-0.9c0-0.9-0.1-1.6-0.3-2.4c-0.2-0.7-0.5-1.4-1-2s-1-1-1.7-1.3c-0.7-0.3-1.6-0.5-2.6-0.5
			c-0.9,0-1.7,0.1-2.4,0.4c-0.8,0.3-1.4,0.7-2,1.3s-1,1.5-1.4,2.5c-0.4,1-0.6,2.3-0.7,3.9H404.7z"/>
		<path class="sustainable" d="M427.1,60.1l4.2-0.6V27.4l-4.3-0.6v-2.8h28l0.5,9h-3.7l-1.7-5.9h-12.8v14.7h8.9l1-4.4h3.2v12.2h-3.2l-1-4.5
			h-8.9v14.4l7.8,0.6v2.8h-18V60.1z"/>
		<path class="sustainable" d="M459.9,36.7l-2.8-0.9v-2.5l7.6-0.8h0l1.1,0.7v18.1c0,1.4,0.1,2.6,0.2,3.6c0.1,1,0.4,1.8,0.8,2.4
			c0.4,0.6,0.9,1.1,1.6,1.3c0.7,0.3,1.5,0.4,2.6,0.4c0.8,0,1.5-0.1,2.1-0.3c0.7-0.2,1.3-0.4,1.9-0.6c0.6-0.3,1.1-0.5,1.5-0.8
			c0.5-0.3,0.8-0.6,1.2-0.8V36.8l-3.7-1v-2.5l8.1-0.7h0.1l1.4,0.7v26.2h3.1V62c-0.6,0.2-1.3,0.4-2.2,0.6c-0.9,0.2-1.8,0.3-2.9,0.3
			c-1.1,0-1.9-0.2-2.4-0.6c-0.5-0.4-0.8-1.1-0.8-2.1v-1.3c-0.5,0.5-1,0.9-1.7,1.4c-0.7,0.5-1.4,0.9-2.2,1.3c-0.8,0.4-1.7,0.7-2.6,1
			c-0.9,0.3-1.8,0.4-2.7,0.4c-1.6,0-3-0.2-4.1-0.6c-1.1-0.4-2.1-1.1-2.8-2c-0.7-0.9-1.3-2.1-1.6-3.5c-0.4-1.4-0.5-3.2-0.5-5.2V36.7z
			"/>
		<path class="sustainable" d="M488.6,48.4c0-2.2,0.3-4.2,1-6c0.7-1.8,1.6-3.3,2.9-4.6c1.2-1.3,2.7-2.3,4.4-3c1.7-0.7,3.5-1.1,5.5-1.1
			c3.3,0,5.8,0.8,7.6,2.4c1.8,1.6,2.8,4,2.9,7.1c0,1,0,1.9,0,2.6c0,0.7-0.1,1.4-0.3,2h-17.8c0.1,1.9,0.3,3.6,0.8,5
			c0.5,1.4,1.1,2.5,1.9,3.4s1.7,1.6,2.7,2c1,0.4,2.1,0.6,3.3,0.6c0.7,0,1.5-0.1,2.2-0.2c0.8-0.1,1.5-0.3,2.2-0.6
			c0.7-0.2,1.3-0.5,1.9-0.8c0.6-0.3,1.1-0.6,1.5-0.9l1.1,2.5c-0.5,0.5-1.1,1-1.9,1.4s-1.6,0.9-2.5,1.2s-1.9,0.6-3,0.9
			c-1.1,0.2-2.1,0.3-3.2,0.3c-2.2,0-4.1-0.4-5.8-1.1c-1.6-0.7-3-1.7-4.1-3c-1.1-1.3-1.9-2.8-2.4-4.6S488.6,50.5,488.6,48.4z
			 M506.6,44.9c0-0.3,0.1-0.6,0.1-1c0-0.3,0-0.7,0-0.9c0-0.9-0.1-1.6-0.3-2.4c-0.2-0.7-0.5-1.4-1-2s-1-1-1.7-1.3s-1.6-0.5-2.6-0.5
			c-0.9,0-1.7,0.1-2.4,0.4c-0.8,0.3-1.4,0.7-2,1.3c-0.6,0.6-1,1.5-1.4,2.5c-0.4,1-0.6,2.3-0.7,3.9H506.6z"/>
		<path class="sustainable" d="M514.6,60.1l4.2-0.4V23.9l-4.2-0.5V21l8.7-1.1h0.1l1.3,0.9v38.9l4.4,0.4v2.8h-14.3V60.1z"/>
		<path class="sustainable" d="M543.7,43.3c0-3,0.5-5.7,1.5-8.1s2.3-4.4,4-6.1c1.7-1.7,3.7-2.9,6-3.8c2.3-0.9,4.8-1.3,7.5-1.3
			c1.2,0,2.3,0.1,3.5,0.2c1.1,0.1,2.2,0.3,3.2,0.5c1,0.2,1.9,0.4,2.7,0.5c0.8,0.2,1.5,0.3,1.9,0.4l-0.5,9.4h-3.8l-1.4-6.4
			c-0.3-0.4-1-0.8-2.1-1.1c-1.1-0.3-2.5-0.4-4.4-0.4c-1.6,0-3.1,0.3-4.5,1c-1.4,0.7-2.5,1.7-3.5,3c-1,1.3-1.8,3-2.3,4.9
			s-0.8,4.2-0.8,6.8c0,2.2,0.2,4.3,0.7,6.4c0.5,2.1,1.2,3.9,2.1,5.5c1,1.6,2.2,2.9,3.7,3.8c1.5,1,3.3,1.4,5.4,1.4
			c0.9,0,1.7-0.1,2.3-0.2c0.6-0.1,1.2-0.3,1.7-0.4s0.9-0.4,1.2-0.6s0.6-0.4,0.8-0.6l2.2-5.3l3.6,0.5l-1.1,7.7
			c-0.7,0.1-1.3,0.2-1.9,0.4c-0.6,0.2-1.3,0.4-2.1,0.7s-1.6,0.4-2.6,0.6c-1,0.2-2.2,0.3-3.6,0.3c-3.1,0-5.8-0.4-8.2-1.3
			c-2.4-0.9-4.4-2.2-6-3.9c-1.6-1.7-2.9-3.7-3.7-6.2C544.1,49.1,543.7,46.4,543.7,43.3z"/>
		<path class="sustainable" d="M578.3,70.6c0.2,0,0.5,0.1,0.8,0.1c0.3,0,0.6,0.1,0.9,0.1c0.3,0,0.6,0,0.9,0c0.7,0,1.3-0.1,2-0.3
			s1.3-0.6,2-1.1c0.7-0.6,1.3-1.4,2-2.4c0.7-1.1,1.3-2.4,2-4.2H586l-9.6-25.8l-2.4-0.7v-2.7h13v2.7l-4,0.7l4.9,15.5l2.3,7.4l2-7.5
			l4.6-15.5l-3.4-0.6v-2.7h10.8v2.7l-2.6,0.6c-2.6,8-4.6,14.1-6.1,18.5c-1.5,4.4-2.4,7-2.8,7.9c-0.8,2-1.6,3.8-2.4,5.3
			c-0.8,1.5-1.6,2.8-2.5,3.8c-0.9,1-1.9,1.8-3,2.3c-1.1,0.5-2.4,0.8-3.9,0.8c-0.3,0-0.5,0-0.8,0s-0.6,0-0.9-0.1
			c-0.3,0-0.5-0.1-0.8-0.1c-0.2,0-0.4-0.1-0.5-0.1v-4.8C577.9,70.5,578.1,70.6,578.3,70.6z"/>
		<path class="sustainable" d="M604.2,48.9c0-2.1,0.3-4,0.9-5.8c0.6-1.8,1.5-3.4,2.8-4.8c1.2-1.4,2.8-2.5,4.6-3.3c1.8-0.8,4-1.2,6.4-1.2
			c0.9,0,1.7,0.1,2.5,0.2c0.8,0.1,1.5,0.3,2.2,0.4c0.7,0.2,1.3,0.3,1.8,0.5s1,0.3,1.3,0.5l-0.3,7.5H623l-1.2-4.5
			c-0.2-0.5-0.7-0.9-1.5-1.2c-0.7-0.2-1.6-0.4-2.5-0.4c-1.1,0-2.1,0.2-3,0.6c-0.9,0.4-1.7,1.1-2.3,1.9c-0.7,0.9-1.2,1.9-1.5,3.2
			c-0.4,1.3-0.5,2.8-0.5,4.5c0,2.1,0.2,3.9,0.6,5.4c0.4,1.5,1,2.7,1.8,3.7c0.8,1,1.6,1.7,2.7,2.1s2.1,0.7,3.3,0.7
			c0.8,0,1.6-0.1,2.3-0.2c0.7-0.1,1.4-0.3,2-0.5c0.6-0.2,1.2-0.4,1.7-0.7c0.5-0.2,1-0.5,1.3-0.8l1.1,2.2c-0.4,0.5-1,0.9-1.7,1.4
			c-0.7,0.5-1.5,0.9-2.3,1.2c-0.9,0.4-1.8,0.7-2.8,0.9s-2,0.3-3,0.3c-2.2,0-4.2-0.4-5.8-1.1c-1.7-0.7-3-1.7-4.2-3
			c-1.1-1.3-1.9-2.7-2.5-4.5C604.5,52.7,604.2,50.9,604.2,48.9z"/>
		<path class="sustainable" d="M628.8,60.1l4.2-0.4V23.9l-4.2-0.5V21l8.7-1.1h0.1l1.3,0.9v38.9l4.4,0.4v2.8h-14.3V60.1z"/>
		<path class="sustainable" d="M644.7,48.4c0-2.2,0.3-4.2,1-6c0.7-1.8,1.6-3.3,2.9-4.6c1.2-1.3,2.7-2.3,4.4-3c1.7-0.7,3.5-1.1,5.5-1.1
			c3.3,0,5.8,0.8,7.6,2.4c1.8,1.6,2.8,4,2.9,7.1c0,1,0,1.9,0,2.6c0,0.7-0.1,1.4-0.3,2h-17.8c0.1,1.9,0.3,3.6,0.8,5
			c0.5,1.4,1.1,2.5,1.9,3.4s1.7,1.6,2.7,2c1,0.4,2.1,0.6,3.3,0.6c0.7,0,1.5-0.1,2.2-0.2c0.8-0.1,1.5-0.3,2.2-0.6
			c0.7-0.2,1.3-0.5,1.9-0.8c0.6-0.3,1.1-0.6,1.5-0.9l1.1,2.5c-0.5,0.5-1.1,1-1.9,1.4s-1.6,0.9-2.5,1.2s-1.9,0.6-3,0.9
			c-1.1,0.2-2.1,0.3-3.2,0.3c-2.2,0-4.1-0.4-5.8-1.1c-1.6-0.7-3-1.7-4.1-3c-1.1-1.3-1.9-2.8-2.4-4.6S644.7,50.5,644.7,48.4z
			 M662.8,44.9c0-0.3,0.1-0.6,0.1-1c0-0.3,0-0.7,0-0.9c0-0.9-0.1-1.6-0.3-2.4c-0.2-0.7-0.5-1.4-1-2s-1-1-1.7-1.3s-1.6-0.5-2.6-0.5
			c-0.9,0-1.7,0.1-2.4,0.4c-0.8,0.3-1.4,0.7-2,1.3c-0.6,0.6-1,1.5-1.4,2.5c-0.4,1-0.6,2.3-0.7,3.9H662.8z"/>
	</g>
	<g>
		<g>
			<path class="taskforce" d="M139.8,111.3l6.5-0.6V79.2H138l-1.9,10.5h-3.6l0.9-13.6h31.5l0.8,13.6h-3.6l-1.9-10.5h-8v31.5l7,0.6v2.7
				h-19.5V111.3z"/>
			<path class="taskforce" d="M167.6,105.9c0-1.7,0.5-3.2,1.4-4.4c0.9-1.2,2.2-2.2,3.7-3c1.6-0.8,3.3-1.3,5.3-1.7c2-0.4,4.1-0.5,6.2-0.5
				v-1.1c0-1-0.1-1.8-0.2-2.5c-0.2-0.7-0.5-1.2-0.9-1.7c-0.4-0.4-1-0.7-1.7-0.9c-0.7-0.2-1.6-0.3-2.7-0.3c-0.9,0-1.8,0.1-2.7,0.2
				c-0.9,0.1-1.7,0.3-2.5,0.5s-1.5,0.4-2.1,0.7c-0.6,0.2-1.2,0.5-1.6,0.7h0l-1.2-2.3c0.3-0.3,0.8-0.6,1.6-1.1
				c0.8-0.4,1.7-0.9,2.8-1.3c1.1-0.4,2.2-0.8,3.5-1.1c1.2-0.3,2.5-0.5,3.7-0.5c1.8,0,3.3,0.2,4.5,0.5s2.2,0.9,3,1.7
				c0.8,0.8,1.3,1.8,1.6,3s0.5,2.7,0.5,4.4v15.5h3v2.4c-0.3,0.1-0.7,0.2-1.1,0.3s-0.9,0.2-1.4,0.3c-0.5,0.1-1,0.2-1.5,0.2
				s-1,0.1-1.4,0.1c-0.5,0-0.9,0-1.2-0.1c-0.3,0-0.6-0.2-0.8-0.3c-0.2-0.2-0.4-0.4-0.5-0.8s-0.1-0.8-0.1-1.4v-1.2
				c-0.3,0.3-0.7,0.6-1.2,1s-1.1,0.8-1.9,1.2c-0.7,0.4-1.5,0.7-2.4,1c-0.9,0.3-1.9,0.4-2.9,0.4c-1.1,0-2.2-0.2-3.3-0.5
				c-1-0.3-2-0.8-2.7-1.5c-0.8-0.7-1.4-1.5-1.9-2.5C167.9,108.6,167.6,107.3,167.6,105.9z M173.8,105.2c0,0.9,0.1,1.7,0.4,2.3
				c0.2,0.6,0.6,1.2,1,1.6s0.9,0.7,1.5,0.9c0.6,0.2,1.2,0.3,1.9,0.3c0.4,0,0.8-0.1,1.3-0.2s1-0.3,1.5-0.5c0.5-0.2,1-0.4,1.5-0.7
				c0.5-0.3,1-0.6,1.4-0.9v-8.9c-1.9,0-3.5,0.2-4.9,0.5s-2.4,0.8-3.2,1.3c-0.8,0.6-1.4,1.2-1.8,2S173.8,104.4,173.8,105.2z"/>
			<path class="taskforce" d="M195.8,105.6h3.5l1,3.6c0.1,0.2,0.4,0.5,0.8,0.7c0.4,0.2,0.8,0.5,1.3,0.6c0.5,0.2,1,0.3,1.7,0.5
				c0.6,0.1,1.2,0.2,1.9,0.2c1,0,1.8-0.1,2.5-0.3s1.2-0.5,1.6-0.8c0.4-0.3,0.7-0.7,0.8-1.2c0.2-0.5,0.2-1,0.2-1.5
				c0-0.6-0.2-1.2-0.5-1.7c-0.3-0.5-0.8-1-1.4-1.4c-0.6-0.5-1.4-0.9-2.4-1.3c-0.9-0.4-2-0.9-3.3-1.4c-1.3-0.5-2.4-1-3.3-1.5
				c-1-0.6-1.7-1.2-2.4-1.9c-0.6-0.7-1.1-1.5-1.4-2.3c-0.3-0.9-0.5-1.8-0.5-2.9c0-1.1,0.3-2.1,0.8-3c0.5-0.9,1.2-1.6,2.2-2.3
				c0.9-0.6,2-1.1,3.3-1.5s2.6-0.5,4.1-0.5c1.1,0,2.1,0.1,3,0.2s1.7,0.3,2.4,0.5c0.7,0.2,1.3,0.4,1.8,0.5c0.5,0.2,0.9,0.3,1.3,0.4v6
				h-3.2l-1.1-3.3c-0.1-0.2-0.3-0.4-0.5-0.6c-0.3-0.2-0.6-0.3-1-0.5c-0.4-0.1-0.8-0.3-1.3-0.3s-1-0.1-1.5-0.1
				c-0.8,0-1.5,0.1-2.1,0.2c-0.6,0.2-1.1,0.4-1.5,0.7c-0.4,0.3-0.7,0.7-0.9,1.1c-0.2,0.4-0.3,0.9-0.3,1.4c0,0.8,0.2,1.5,0.6,2
				s0.9,1,1.5,1.4c0.6,0.4,1.3,0.8,2.1,1.1c0.8,0.3,1.6,0.7,2.5,1c1.1,0.5,2.2,0.9,3.2,1.5c1.1,0.5,2,1.1,2.8,1.8s1.5,1.4,1.9,2.3
				s0.7,1.9,0.7,3.2c0,1.2-0.2,2.3-0.7,3.3c-0.5,1-1.2,1.8-2.2,2.5c-0.9,0.7-2.1,1.2-3.4,1.6s-2.9,0.6-4.6,0.6
				c-0.9,0-1.9-0.1-2.9-0.2c-1-0.1-1.9-0.3-2.8-0.6c-0.9-0.2-1.7-0.5-2.4-0.7c-0.7-0.2-1.3-0.5-1.7-0.7V105.6z"/>
			<path class="taskforce" d="M219.4,111.3l3.3-0.4V76.2l-3.9-0.5v-2.4l8.3-1.1h0.1l1.2,0.8v24.6l-0.1,2.8L239.3,89l-4-0.7v-2.5H248v2.5
				l-3.9,0.8l-7.2,7.1l9.8,14.7l3,0.4v2.7h-12.5v-2.7l3-0.5l-7-11.4l-4.9,4.8l0.1,2.6v3.9l3.6,0.4v2.7h-12.5V111.3z"/>
			<path class="taskforce" d="M263.6,111.3l4.1-0.6V79.5l-4.2-0.6v-2.8h27.2l0.5,8.7h-3.6l-1.6-5.7h-12.4v14.3h8.7l1-4.2h3.1v11.9h-3.1
				l-1-4.4h-8.7v14l7.6,0.6v2.7h-17.5V111.3z"/>
			<path class="taskforce" d="M293.4,99.8c0-2.3,0.4-4.3,1.2-6c0.8-1.8,1.8-3.2,3-4.4c1.3-1.2,2.7-2.1,4.3-2.7c1.6-0.6,3.3-0.9,5-0.9
				c2.2,0,4.2,0.4,5.8,1.1s3,1.7,4,3c1,1.3,1.8,2.8,2.3,4.5s0.8,3.6,0.8,5.6c0,2.3-0.4,4.3-1.1,6.1c-0.8,1.8-1.8,3.2-3,4.4
				c-1.3,1.2-2.7,2.1-4.3,2.7s-3.3,0.9-5,0.9c-2.2,0-4.2-0.4-5.8-1.1s-2.9-1.7-4-3c-1-1.3-1.8-2.8-2.3-4.5
				C293.7,103.7,293.4,101.8,293.4,99.8z M306.6,110.9c4.6,0,6.9-3.5,6.9-10.6c0-1.6-0.1-3.2-0.4-4.6c-0.2-1.4-0.6-2.6-1.2-3.7
				c-0.5-1-1.3-1.8-2.1-2.4c-0.9-0.6-1.9-0.9-3.2-0.9c-2.3,0-4,0.9-5.2,2.7c-1.2,1.8-1.8,4.4-1.8,8c0,1.6,0.1,3.2,0.4,4.6
				c0.3,1.4,0.7,2.6,1.2,3.7c0.5,1,1.3,1.8,2.1,2.4C304.3,110.6,305.4,110.9,306.6,110.9z"/>
			<path class="taskforce" d="M322.8,111.3l3.9-0.4V90.8l-3.5-1v-3l7.1-1h0.1l1.2,1v1.6l0,3.4h0c0.1-0.2,0.3-0.4,0.5-0.8s0.6-0.8,1-1.2
				s0.9-0.9,1.4-1.4s1.2-0.9,1.8-1.3c0.7-0.4,1.4-0.7,2.2-1c0.8-0.2,1.6-0.4,2.5-0.4c0.4,0,0.7,0,1,0.1c0.3,0.1,0.5,0.1,0.7,0.2v6.3
				c-0.3-0.2-0.7-0.4-1.2-0.6c-0.5-0.2-1.1-0.3-1.7-0.3c-0.9,0-1.8,0.1-2.5,0.2c-0.8,0.1-1.4,0.3-2,0.5c-0.6,0.2-1.1,0.5-1.6,0.7
				c-0.5,0.3-0.9,0.5-1.2,0.8v17.4h6.5v2.9h-16.1V111.3z"/>
			<path class="taskforce" d="M344.6,100.4c0-2,0.3-3.9,0.9-5.7c0.6-1.8,1.5-3.3,2.7-4.7c1.2-1.3,2.7-2.4,4.5-3.2s3.9-1.2,6.2-1.2
				c0.9,0,1.7,0.1,2.5,0.2c0.8,0.1,1.5,0.3,2.2,0.4s1.3,0.3,1.8,0.5c0.5,0.2,0.9,0.3,1.3,0.4l-0.2,7.3h-3.5l-1.1-4.4
				c-0.2-0.5-0.7-0.9-1.4-1.2c-0.7-0.2-1.5-0.4-2.4-0.4c-1.1,0-2.1,0.2-2.9,0.6s-1.6,1-2.3,1.9c-0.6,0.8-1.1,1.9-1.5,3.1
				c-0.3,1.3-0.5,2.7-0.5,4.4c0,2,0.2,3.8,0.6,5.2s1,2.7,1.8,3.6s1.6,1.6,2.6,2.1c1,0.4,2,0.7,3.2,0.7c0.8,0,1.5-0.1,2.2-0.2
				c0.7-0.1,1.4-0.3,2-0.5c0.6-0.2,1.1-0.4,1.6-0.7c0.5-0.2,0.9-0.5,1.3-0.7l1.1,2.2c-0.4,0.4-1,0.9-1.6,1.3s-1.4,0.8-2.3,1.2
				c-0.8,0.4-1.7,0.6-2.7,0.9s-1.9,0.3-2.9,0.3c-2.2,0-4-0.3-5.6-1c-1.6-0.7-3-1.7-4-2.9c-1.1-1.2-1.9-2.7-2.4-4.3
				S344.6,102.3,344.6,100.4z"/>
			<path class="taskforce" d="M369.6,99.9c0-2.1,0.3-4.1,1-5.8s1.6-3.2,2.8-4.5c1.2-1.2,2.6-2.2,4.2-2.9s3.4-1,5.4-1
				c3.2,0,5.6,0.8,7.4,2.4c1.7,1.6,2.7,3.9,2.8,6.9c0,1,0,1.8,0,2.5c0,0.7-0.1,1.4-0.3,1.9h-17.2c0,1.9,0.3,3.5,0.8,4.9
				c0.5,1.4,1.1,2.5,1.8,3.3c0.8,0.9,1.6,1.5,2.6,1.9c1,0.4,2.1,0.6,3.2,0.6c0.7,0,1.4-0.1,2.2-0.2s1.4-0.3,2.1-0.5s1.3-0.5,1.9-0.7
				s1-0.6,1.4-0.9l1,2.4c-0.5,0.5-1.1,0.9-1.8,1.4c-0.7,0.5-1.6,0.9-2.5,1.2c-0.9,0.3-1.9,0.6-2.9,0.8c-1,0.2-2.1,0.3-3.1,0.3
				c-2.1,0-4-0.3-5.6-1c-1.6-0.7-2.9-1.7-4-2.9c-1.1-1.3-1.9-2.7-2.4-4.5C369.8,103.9,369.6,102,369.6,99.9z M387.1,96.5
				c0-0.3,0.1-0.6,0.1-0.9c0-0.3,0-0.6,0-0.9c0-0.8-0.1-1.6-0.3-2.3c-0.2-0.7-0.5-1.4-0.9-1.9c-0.4-0.5-1-1-1.7-1.3
				c-0.7-0.3-1.5-0.5-2.5-0.5c-0.8,0-1.6,0.1-2.4,0.4s-1.4,0.7-1.9,1.3c-0.6,0.6-1,1.4-1.3,2.4s-0.6,2.3-0.6,3.8H387.1z"/>
		</g>
	</g>
</g>
</svg>
