<?xml version="1.0" encoding="UTF-8"?>
<svg enable-background="new 0 0 393 393" version="1" viewBox="0 0 393 393" xml:space="preserve" xmlns="http://www.w3.org/2000/svg">
<style type="text/css">
	.st0{fill:#126396;}
	.st1{fill:#58595B;}
	.st2{fill:#E6E7E8;}
</style>

	<circle class="st0" cx="197" cy="197" r="30"/>
	<path class="st1" d="m195 55s-57-55-92 4c-33 55 12 162 12 162-31-45-53-124-21-176 24-40 77-31 101 10z"/>
	<path class="st2" d="m162 41s-34-11-49 33c-25 74 24 177 24 177-32-35-52-132-34-181 11-32 38-40 59-29z"/>
	<path class="st0" d="m149 47s-23 12-28 49c-6 46-0 85-0 85-11-37-20-123 28-134z"/>
	<polygon class="st0" points="204 45 198 59 184 66 219 85"/>
	<path class="st1" d="m199 339s57 55 92-4c33-55-12-162-12-162 31 45 53 124 21 176-25 40-77 32-101-10z"/>
	<path class="st2" d="m231 354s34 11 49-33c25-74-24-177-24-177 32 35 52 132 35 181-12 32-39 40-60 29z"/>
	<path class="st0" d="m244 348s23-12 28-49c6-46 0-85 0-85 12 36 20 123-28 134z"/>
	<polygon class="st0" points="189 349 195 335 209 328 175 310"/>
	<path class="st1" d="m54 199s-55 57 4 92c55 33 162-12 162-12-45 31-124 53-176 21-40-25-31-77 10-101z"/>
	<path class="st2" d="m40 232s-11 34 33 49c74 25 177-24 177-24-35 32-132 52-181 35-32-13-40-40-29-60z"/>
	<path class="st0" d="m46 244s12 23 49 28c46 6 85 0 85 0-36 12-123 21-134-28z"/>
	<polygon class="st0" points="45 190 58 196 65 210 84 175"/>
	<path class="st1" d="m339 195s55-57-4-92c-55-33-162 12-162 12 45-31 124-53 176-21 40 25 31 77-10 101z"/>
	<path class="st2" d="m353 163s11-34-33-49c-74-25-177 24-177 24 35-32 132-52 181-35 32 12 40 39 29 60z"/>
	<path class="st0" d="m347 150s-12-23-49-28c-46-6-85-0-85-0 37-12 123-21 134 28z"/>
	<polygon class="st0" points="349 204 335 199 328 184 309 219"/>

</svg>
