<!-- Generator: Adobe Illustrator NaN, SVG Export Plug-In . SVG Version: 6 Build 0)  -->
<svg version="1" id="Layer_1" xmlns="http://www.w3.org/2000/svg" xmlns:xlink="http://www.w3.org/1999/xlink" x="0px" y="0px"
	 viewBox="0 0 393 393" style="enable-background:new 0 0 393 393;" xml:space="preserve">
<style type="text/css">
	.st0{fill:#126396;}
	.st1{fill:#58595B;}
	.st2{fill:#E6E7E8;}
</style>
<g>
	<circle class="st0" cx="197" cy="197" r="30"/>
	<path class="st1" d="M195,55c0,0-57-55-92,4c-33,55,12,162,12,162c-31-45-53-124-21-176
		C118,5,171,14,195,55z"/>
	<path class="st2" d="M162,41c0,0-34-11-49,33c-25,74,24,177,24,177C105,216,85,119,103,70
		C114,38,141,30,162,41z"/>
	<path class="st0" d="M149,47c0,0-23,12-28,49c-6,46-0,85-0,85C110,144,101,58,149,47z"/>
	<polygon class="st0" points="204,45 198,59 184,66 219,85 	"/>
	<path class="st1" d="M199,339c0,0,57,55,92-4c33-55-12-162-12-162c31,45,53,124,21,176
		C275,389,223,381,199,339z"/>
	<path class="st2" d="M231,354c0,0,34,11,49-33c25-74-24-177-24-177c32,35,52,132,35,181
		C279,357,252,365,231,354z"/>
	<path class="st0" d="M244,348c0,0,23-12,28-49c6-46,0-85,0-85C284,250,292,337,244,348z"/>
	<polygon class="st0" points="189,349 195,335 209,328 175,310 	"/>
	<path class="st1" d="M54,199c0,0-55,57,4,92c55,33,162-12,162-12c-45,31-124,53-176,21
		C4,275,13,223,54,199z"/>
	<path class="st2" d="M40,232c0,0-11,34,33,49c74,25,177-24,177-24c-35,32-132,52-181,35
		C37,279,29,252,40,232z"/>
	<path class="st0" d="M46,244c0,0,12,23,49,28c46,6,85,0,85,0C144,284,57,293,46,244z"/>
	<polygon class="st0" points="45,190 58,196 65,210 84,175 	"/>
	<path class="st1" d="M339,195c0,0,55-57-4-92c-55-33-162,12-162,12c45-31,124-53,176-21
		C389,119,380,171,339,195z"/>
	<path class="st2" d="M353,163c0,0,11-34-33-49c-74-25-177,24-177,24c35-32,132-52,181-35
		C356,115,364,142,353,163z"/>
	<path class="st0" d="M347,150c0,0-12-23-49-28c-46-6-85-0-85-0C250,110,336,101,347,150z"/>
	<polygon class="st0" points="349,204 335,199 328,184 309,219 	"/>
</g>
</svg>